<svg width="60" height="60" viewBox="0 0 60 60" fill="none" xmlns="http://www.w3.org/2000/svg">
<circle cx="30" cy="30" r="30" fill="#F25E5E"/>
<path d="M30.9453 24.0234C29.3359 24.0234 28.0703 24.5938 27.1484 25.7344C26.2266 26.875 25.7656 28.4492 25.7656 30.457C25.7656 32.5586 26.207 34.1484 27.0898 35.2266C27.9805 36.3047 29.2656 36.8438 30.9453 36.8438C31.6719 36.8438 32.375 36.7734 33.0547 36.6328C33.7344 36.4844 34.4414 36.2969 35.1758 36.0703V38.4727C33.832 38.9805 32.3086 39.2344 30.6055 39.2344C28.0977 39.2344 26.1719 38.4766 24.8281 36.9609C23.4844 35.4375 22.8125 33.2617 22.8125 30.4336C22.8125 28.6523 23.1367 27.0938 23.7852 25.7578C24.4414 24.4219 25.3867 23.3984 26.6211 22.6875C27.8555 21.9766 29.3047 21.6211 30.9688 21.6211C32.7188 21.6211 34.3359 21.9883 35.8203 22.7227L34.8125 25.0547C34.2344 24.7812 33.6211 24.543 32.9727 24.3398C32.332 24.1289 31.6562 24.0234 30.9453 24.0234Z" fill="white"/>
</svg>
