<svg width="60" height="60" viewBox="0 0 60 60" fill="none" xmlns="http://www.w3.org/2000/svg">
<circle cx="30" cy="30" r="30" fill="#04BFAD"/>
<path d="M35.168 25.8047C35.168 26.8906 34.8516 27.7969 34.2188 28.5234C33.5859 29.2422 32.6953 29.7266 31.5469 29.9766V30.0703C32.9219 30.2422 33.9531 30.6719 34.6406 31.3594C35.3281 32.0391 35.6719 32.9453 35.6719 34.0781C35.6719 35.7266 35.0898 37 33.9258 37.8984C32.7617 38.7891 31.1055 39.2344 28.957 39.2344C27.0586 39.2344 25.457 38.9258 24.1523 38.3086V35.8594C24.8789 36.2188 25.6484 36.4961 26.4609 36.6914C27.2734 36.8867 28.0547 36.9844 28.8047 36.9844C30.1328 36.9844 31.125 36.7383 31.7812 36.2461C32.4375 35.7539 32.7656 34.9922 32.7656 33.9609C32.7656 33.0469 32.4023 32.375 31.6758 31.9453C30.9492 31.5156 29.8086 31.3008 28.2539 31.3008H26.7656V29.0625H28.2773C31.0117 29.0625 32.3789 28.1172 32.3789 26.2266C32.3789 25.4922 32.1406 24.9258 31.6641 24.5273C31.1875 24.1289 30.4844 23.9297 29.5547 23.9297C28.9062 23.9297 28.2812 24.0234 27.6797 24.2109C27.0781 24.3906 26.3672 24.7461 25.5469 25.2773L24.1992 23.3555C25.7695 22.1992 27.5938 21.6211 29.6719 21.6211C31.3984 21.6211 32.7461 21.9922 33.7148 22.7344C34.6836 23.4766 35.168 24.5 35.168 25.8047Z" fill="#FFFFFF"/>
</svg>
