<svg width="60" height="60" viewBox="0 0 60 60" fill="none" xmlns="http://www.w3.org/2000/svg">
<circle cx="30" cy="30" r="30" fill="#04BFAD"/>
<path d="M29.9883 21.6445C31.6133 21.6445 32.8984 22.0195 33.8438 22.7695C34.7891 23.5117 35.2617 24.5078 35.2617 25.7578C35.2617 27.5156 34.207 28.9141 32.0977 29.9531C33.4414 30.625 34.3945 31.332 34.957 32.0742C35.5273 32.8164 35.8125 33.6445 35.8125 34.5586C35.8125 35.9727 35.293 37.1055 34.2539 37.957C33.2148 38.8086 31.8086 39.2344 30.0352 39.2344C28.1758 39.2344 26.7344 38.8359 25.7109 38.0391C24.6875 37.2422 24.1758 36.1133 24.1758 34.6523C24.1758 33.6992 24.4414 32.8438 24.9727 32.0859C25.5117 31.3203 26.3906 30.6406 27.6094 30.0469C26.5625 29.4219 25.8164 28.7617 25.3711 28.0664C24.9258 27.3711 24.7031 26.5898 24.7031 25.7227C24.7031 24.4805 25.1914 23.4922 26.168 22.7578C27.1445 22.0156 28.418 21.6445 29.9883 21.6445ZM26.8125 34.5586C26.8125 35.3711 27.0977 36.0039 27.668 36.457C28.2383 36.9023 29.0117 37.125 29.9883 37.125C30.9961 37.125 31.7773 36.8945 32.332 36.4336C32.8945 35.9648 33.1758 35.332 33.1758 34.5352C33.1758 33.9023 32.918 33.3242 32.4023 32.8008C31.8867 32.2773 31.1055 31.793 30.0586 31.3477L29.7188 31.1953C28.6875 31.6484 27.9453 32.1484 27.4922 32.6953C27.0391 33.2344 26.8125 33.8555 26.8125 34.5586ZM29.9648 23.7656C29.1836 23.7656 28.5547 23.9609 28.0781 24.3516C27.6016 24.7344 27.3633 25.2578 27.3633 25.9219C27.3633 26.3281 27.4492 26.6914 27.6211 27.0117C27.793 27.332 28.043 27.625 28.3711 27.8906C28.6992 28.1484 29.2539 28.4609 30.0352 28.8281C30.9727 28.4141 31.6328 27.9805 32.0156 27.5273C32.4062 27.0664 32.6016 26.5312 32.6016 25.9219C32.6016 25.2578 32.3594 24.7344 31.875 24.3516C31.3984 23.9609 30.7617 23.7656 29.9648 23.7656Z" fill="#FFFFFF"/>
</svg>
