<svg width="60" height="60" viewBox="0 0 60 60" fill="none" xmlns="http://www.w3.org/2000/svg">
<circle cx="30" cy="30" r="30" fill="#04BFAD"/>
<path d="M30.0117 28.3008C31.7383 28.3008 33.1055 28.7578 34.1133 29.6719C35.1211 30.5859 35.625 31.832 35.625 33.4102C35.625 35.2383 35.0508 36.668 33.9023 37.6992C32.7617 38.7227 31.1367 39.2344 29.0273 39.2344C27.1133 39.2344 25.6094 38.9258 24.5156 38.3086V35.8125C25.1484 36.1719 25.875 36.4492 26.6953 36.6445C27.5156 36.8398 28.2773 36.9375 28.9805 36.9375C30.2227 36.9375 31.168 36.6602 31.8164 36.1055C32.4648 35.5508 32.7891 34.7383 32.7891 33.668C32.7891 31.6211 31.4844 30.5977 28.875 30.5977C28.5078 30.5977 28.0547 30.6367 27.5156 30.7148C26.9766 30.7852 26.5039 30.8672 26.0977 30.9609L24.8672 30.2344L25.5234 21.8672H34.4297V24.3164H27.9492L27.5625 28.5586C27.8359 28.5117 28.168 28.457 28.5586 28.3945C28.957 28.332 29.4414 28.3008 30.0117 28.3008Z" fill="#FFFFFF"/>
</svg>
