<svg width="60" height="60" viewBox="0 0 60 60" fill="none" xmlns="http://www.w3.org/2000/svg">
<circle cx="30" cy="30" r="30" fill="#04BFAD"/>
<path d="M35.8125 30.4336C35.8125 33.4102 35.332 35.6211 34.3711 37.0664C33.418 38.5117 31.957 39.2344 29.9883 39.2344C28.082 39.2344 26.6367 38.4883 25.6523 36.9961C24.668 35.5039 24.1758 33.3164 24.1758 30.4336C24.1758 27.4102 24.6523 25.1836 25.6055 23.7539C26.5664 22.3164 28.0273 21.5977 29.9883 21.5977C31.9023 21.5977 33.3516 22.3477 34.3359 23.8477C35.3203 25.3477 35.8125 27.543 35.8125 30.4336ZM26.9648 30.4336C26.9648 32.7695 27.2031 34.4375 27.6797 35.4375C28.1641 36.4375 28.9336 36.9375 29.9883 36.9375C31.043 36.9375 31.8125 36.4297 32.2969 35.4141C32.7891 34.3984 33.0352 32.7383 33.0352 30.4336C33.0352 28.1367 32.7891 26.4766 32.2969 25.4531C31.8125 24.4219 31.043 23.9062 29.9883 23.9062C28.9336 23.9062 28.1641 24.4102 27.6797 25.418C27.2031 26.4258 26.9648 28.0977 26.9648 30.4336Z" fill="#FFFFFF"/>
</svg>
