<svg width="60" height="60" viewBox="0 0 60 60" fill="none" xmlns="http://www.w3.org/2000/svg">
<circle cx="30" cy="30" r="30" fill="#04BFAD"/>
<path d="M35.7891 29.1797C35.7891 32.5547 35.1094 35.0742 33.75 36.7383C32.3906 38.4023 30.3438 39.2344 27.6094 39.2344C26.5703 39.2344 25.8242 39.1719 25.3711 39.0469V36.7383C26.0664 36.9336 26.7656 37.0312 27.4688 37.0312C29.3281 37.0312 30.7148 36.5312 31.6289 35.5312C32.543 34.5312 33.043 32.9609 33.1289 30.8203H32.9883C32.5273 31.5234 31.9688 32.0312 31.3125 32.3438C30.6641 32.6562 29.9023 32.8125 29.0273 32.8125C27.5117 32.8125 26.3203 32.3398 25.4531 31.3945C24.5859 30.4492 24.1523 29.1523 24.1523 27.5039C24.1523 25.7148 24.6523 24.293 25.6523 23.2383C26.6602 22.1758 28.0312 21.6445 29.7656 21.6445C30.9844 21.6445 32.0469 21.9414 32.9531 22.5352C33.8594 23.1289 34.5586 23.9922 35.0508 25.125C35.543 26.25 35.7891 27.6016 35.7891 29.1797ZM29.8125 23.9297C28.8594 23.9297 28.1289 24.2422 27.6211 24.8672C27.1133 25.4844 26.8594 26.3555 26.8594 27.4805C26.8594 28.457 27.0938 29.2266 27.5625 29.7891C28.0391 30.3438 28.7578 30.6211 29.7188 30.6211C30.6484 30.6211 31.4297 30.3438 32.0625 29.7891C32.6953 29.2344 33.0117 28.5859 33.0117 27.8438C33.0117 27.1484 32.875 26.5 32.6016 25.8984C32.3359 25.2891 31.9609 24.8086 31.4766 24.457C30.9922 24.1055 30.4375 23.9297 29.8125 23.9297Z" fill="#FFFFFF"/>
</svg>
