<svg width="60" height="60" viewBox="0 0 60 60" fill="none" xmlns="http://www.w3.org/2000/svg">
<circle cx="30" cy="30" r="30" fill="#B0D1D8"/>
<path d="M35.8125 39H24.1992V36.9141L28.6172 32.4727C29.9219 31.1367 30.7852 30.1914 31.207 29.6367C31.6367 29.0742 31.9492 28.5469 32.1445 28.0547C32.3398 27.5625 32.4375 27.0352 32.4375 26.4727C32.4375 25.6992 32.2031 25.0898 31.7344 24.6445C31.2734 24.1992 30.6328 23.9766 29.8125 23.9766C29.1562 23.9766 28.5195 24.0977 27.9023 24.3398C27.293 24.582 26.5859 25.0195 25.7812 25.6523L24.293 23.8359C25.2461 23.0312 26.1719 22.4609 27.0703 22.125C27.9688 21.7891 28.9258 21.6211 29.9414 21.6211C31.5352 21.6211 32.8125 22.0391 33.7734 22.875C34.7344 23.7031 35.2148 24.8203 35.2148 26.2266C35.2148 27 35.0742 27.7344 34.793 28.4297C34.5195 29.125 34.0938 29.8438 33.5156 30.5859C32.9453 31.3203 31.9922 32.3164 30.6562 33.5742L27.6797 36.457V36.5742H35.8125V39Z" fill="#024873"/>
</svg>
