<svg width="60" height="60" viewBox="0 0 60 60" fill="none" xmlns="http://www.w3.org/2000/svg">
<circle cx="30" cy="30" r="30" fill="#B0D1D8"/>
<path d="M24.2461 31.6992C24.2461 24.9961 26.9766 21.6445 32.4375 21.6445C33.2969 21.6445 34.0234 21.7109 34.6172 21.8438V24.1406C34.0234 23.9688 33.3359 23.8828 32.5547 23.8828C30.7188 23.8828 29.3398 24.375 28.418 25.3594C27.4961 26.3438 26.9961 27.9219 26.918 30.0938H27.0586C27.4258 29.4609 27.9414 28.9727 28.6055 28.6289C29.2695 28.2773 30.0508 28.1016 30.9492 28.1016C32.5039 28.1016 33.7148 28.5781 34.582 29.5312C35.4492 30.4844 35.8828 31.7773 35.8828 33.4102C35.8828 35.207 35.3789 36.6289 34.3711 37.6758C33.3711 38.7148 32.0039 39.2344 30.2695 39.2344C29.043 39.2344 27.9766 38.9414 27.0703 38.3555C26.1641 37.7617 25.4648 36.9023 24.9727 35.7773C24.4883 34.6445 24.2461 33.2852 24.2461 31.6992ZM30.2227 36.9609C31.168 36.9609 31.8945 36.6562 32.4023 36.0469C32.918 35.4375 33.1758 34.5664 33.1758 33.4336C33.1758 32.4492 32.9336 31.6758 32.4492 31.1133C31.9727 30.5508 31.2539 30.2695 30.293 30.2695C29.6992 30.2695 29.1523 30.3984 28.6523 30.6562C28.1523 30.9062 27.7578 31.2539 27.4688 31.6992C27.1797 32.1367 27.0352 32.5859 27.0352 33.0469C27.0352 34.1484 27.332 35.0781 27.9258 35.8359C28.5273 36.5859 29.293 36.9609 30.2227 36.9609Z" fill="#024873"/>
</svg>
